<svg xmlns="http://www.w3.org/2000/svg" width="19.494" height="19.489" viewBox="0 0 19.494 19.489">
  <path id="instagram-brands_1_" data-name="instagram-brands (1)" d="M9.674,36.573a5,5,0,1,0,5,5A4.989,4.989,0,0,0,9.674,36.573Zm0,8.245a3.249,3.249,0,1,1,3.249-3.249,3.254,3.254,0,0,1-3.249,3.249Zm6.367-8.45A1.165,1.165,0,1,1,14.875,35.2,1.163,1.163,0,0,1,16.041,36.368Zm3.309,1.183a5.768,5.768,0,0,0-1.574-4.084,5.806,5.806,0,0,0-4.084-1.574c-1.609-.091-6.432-.091-8.041,0a5.8,5.8,0,0,0-4.084,1.57A5.787,5.787,0,0,0-.007,37.547c-.091,1.609-.091,6.432,0,8.041a5.768,5.768,0,0,0,1.574,4.084,5.813,5.813,0,0,0,4.084,1.574c1.609.091,6.432.091,8.041,0a5.768,5.768,0,0,0,4.084-1.574,5.806,5.806,0,0,0,1.574-4.084C19.441,43.979,19.441,39.16,19.35,37.551Zm-2.079,9.763a3.289,3.289,0,0,1-1.853,1.853c-1.283.509-4.327.391-5.745.391s-4.466.113-5.745-.391a3.289,3.289,0,0,1-1.853-1.853c-.509-1.283-.391-4.327-.391-5.745s-.113-4.466.391-5.745a3.289,3.289,0,0,1,1.853-1.853c1.283-.509,4.327-.391,5.745-.391s4.466-.113,5.745.391a3.289,3.289,0,0,1,1.853,1.853c.509,1.283.391,4.327.391,5.745S17.78,46.036,17.271,47.314Z" transform="translate(0.075 -31.825)" fill="#293135"/>
</svg>
