<svg xmlns="http://www.w3.org/2000/svg" width="44" height="44" viewBox="0 0 44 44">
  <g id="Group_243" data-name="Group 243" transform="translate(-1606.999 -8648)">
    <rect id="Rectangle_10" data-name="Rectangle 10" width="44" height="44" rx="22" transform="translate(1606.999 8648)" fill="#293135"/>
    <path id="envelope-solid" d="M21.248,69.364a.255.255,0,0,1,.41.2v8.651a2.031,2.031,0,0,1-2.031,2.031H2.031A2.031,2.031,0,0,1,0,78.214V69.567a.253.253,0,0,1,.41-.2c.948.736,2.2,1.671,6.519,4.806.893.651,2.4,2.022,3.9,2.014,1.51.013,3.046-1.388,3.9-2.014C19.049,71.039,20.3,70.1,21.248,69.364ZM10.829,74.829c.981.017,2.394-1.235,3.1-1.751,5.614-4.074,6.041-4.429,7.335-5.444a1.012,1.012,0,0,0,.389-.8v-.8A2.031,2.031,0,0,0,19.628,64H2.031A2.031,2.031,0,0,0,0,66.031v.8a1.018,1.018,0,0,0,.389.8C1.684,68.645,2.111,69,7.724,73.078,8.435,73.594,9.848,74.846,10.829,74.829Z" transform="translate(1618 8598)" fill="#fff"/>
  </g>
</svg>
