<svg xmlns="http://www.w3.org/2000/svg" width="44" height="44" viewBox="0 0 44 44">
  <g id="Group_232" data-name="Group 232" transform="translate(-487 -2502)">
    <g id="Ellipse_103" data-name="Ellipse 103" transform="translate(487 2502)" fill="none" stroke="#fc7753" stroke-width="1">
      <circle cx="22" cy="22" r="22" stroke="none"/>
      <circle cx="22" cy="22" r="21.5" fill="none"/>
    </g>
    <path id="phone-flip-solid" d="M.578,10.746l3.3-1.417a.947.947,0,0,1,1.11.274l1.343,1.639a10.656,10.656,0,0,0,4.858-4.858L9.556,5.042a.954.954,0,0,1-.273-1.111L10.7.627a.955.955,0,0,1,1.09-.552l3.07.708a.947.947,0,0,1,.738.928A13.95,13.95,0,0,1,1.662,15.646a.946.946,0,0,1-.928-.738l-.708-3.07A.959.959,0,0,1,.578,10.746Z" transform="translate(500.954 2516.906)" fill="#fc7753"/>
  </g>
</svg>
