<svg xmlns="http://www.w3.org/2000/svg" width="20.994" height="20.995" viewBox="0 0 20.994 20.995">
  <path id="phone-flip-solid" d="M.778,14.449l4.449-1.908a1.275,1.275,0,0,1,1.495.368l1.808,2.207a14.345,14.345,0,0,0,6.54-6.54L12.863,6.77a1.285,1.285,0,0,1-.368-1.5L14.4.826A1.286,1.286,0,0,1,15.87.083L20,1.037A1.274,1.274,0,0,1,21,2.286,18.779,18.779,0,0,1,2.237,21.045a1.274,1.274,0,0,1-1.249-.993L.035,15.919A1.29,1.29,0,0,1,.778,14.449Z" transform="translate(-0.002 -0.05)" fill="#03363d"/>
</svg>
