<svg xmlns="http://www.w3.org/2000/svg" width="22.266" height="18.084" viewBox="0 0 22.266 18.084">
  <path id="twitter-brands" d="M19.977,52.589c.014.2.014.4.014.593A12.9,12.9,0,0,1,7.008,66.166,12.9,12.9,0,0,1,0,64.117a9.442,9.442,0,0,0,1.1.056,9.139,9.139,0,0,0,5.665-1.95A4.571,4.571,0,0,1,2.5,59.06a5.755,5.755,0,0,0,.862.071,4.827,4.827,0,0,0,1.2-.155A4.564,4.564,0,0,1,.9,54.5V54.44a4.6,4.6,0,0,0,2.063.579,4.57,4.57,0,0,1-1.413-6.1,12.971,12.971,0,0,0,9.409,4.775,5.152,5.152,0,0,1-.113-1.045,4.568,4.568,0,0,1,7.9-3.122,8.984,8.984,0,0,0,2.9-1.1,4.551,4.551,0,0,1-2.006,2.515,9.148,9.148,0,0,0,2.628-.706A9.81,9.81,0,0,1,19.977,52.589Z" transform="translate(0 -48.082)" fill="#293135"/>
</svg>
