<svg xmlns="http://www.w3.org/2000/svg" width="15.746" height="20.995" viewBox="0 0 15.746 20.995">
  <path id="file-arrow-up-solid" d="M10.5,0V5.249h5.249ZM9.185,5.249V0H1.968A1.968,1.968,0,0,0,0,1.968V19.026a1.968,1.968,0,0,0,1.968,1.968H13.778a1.968,1.968,0,0,0,1.968-1.968V6.561H10.534A1.319,1.319,0,0,1,9.185,5.249Zm2.628,8.861a.769.769,0,0,1-.66.324.977.977,0,0,1-.7-.288l-1.6-1.6V16.73a.984.984,0,1,1-1.968,0V12.543l-1.6,1.6A.984.984,0,1,1,3.9,12.752l3.28-3.28a.984.984,0,0,1,1.392,0l3.28,3.28A.917.917,0,0,1,11.814,14.11Z" fill="#03363d"/>
</svg>
